<svg aria-hidden="true" style="position: absolute; width: 0; height: 0; overflow: hidden;" version="1.1" xmlns="http://www.w3.org/2000/svg" xmlns:xlink="http://www.w3.org/1999/xlink">
<defs>
<symbol id="icon-create" viewBox="0 0 32 32">
<path d="M15.967 2.903c2.584 0 5.11 0.766 7.258 2.202s3.823 3.476 4.812 5.863c0.989 2.387 1.248 5.014 0.743 7.548s-1.748 4.862-3.575 6.689c-1.827 1.827-4.155 3.071-6.689 3.575s-5.161 0.245-7.548-0.744-4.428-2.663-5.863-4.812c-1.436-2.148-2.202-4.674-2.202-7.258 0.013-3.461 1.394-6.776 3.841-9.223s5.762-3.828 9.223-3.841zM15.967 0c-3.155 0.013-6.236 0.96-8.853 2.723s-4.654 4.261-5.852 7.179c-1.199 2.919-1.505 6.127-0.882 9.22s2.149 5.932 4.385 8.159c2.236 2.227 5.081 3.741 8.176 4.352s6.303 0.291 9.217-0.92c2.914-1.21 5.404-3.257 7.155-5.881s2.686-5.709 2.687-8.864c0-2.102-0.415-4.184-1.222-6.126s-1.988-3.705-3.478-5.188c-1.49-1.484-3.258-2.658-5.202-3.457s-4.028-1.205-6.131-1.197z"></path>
<path d="M23.414 14.763h-6.423v-6.423h-2.163v6.423h-6.43v2.163h6.43v6.423h2.163v-6.423h6.423v-2.163z"></path>
</symbol>
<symbol id="icon-logo" viewBox="0 0 20 32">
<path fill="rgb(78, 168, 222)" d="M9.797 2.607c2.778 3.527 4.261 7.877 4.208 12.34v1.065l0.917 0.558c1.184 0.717 2.068 1.829 2.489 3.134-0.37-0.272-0.757-0.521-1.159-0.746l-2.444-1.372-0.439 2.77c-0.038 0.245-0.089 0.487-0.153 0.727h-6.85c-0.102-0.313-0.185-0.627-0.261-0.953l-0.554-2.507-2.253 1.253c-0.376 0.21-0.74 0.443-1.089 0.696 0.429-1.289 1.294-2.395 2.451-3.134l0.872-0.558v-0.99c0.016-4.445 1.517-8.762 4.271-12.284h-0.006zM9.803 0c-0.143 0-0.281 0.052-0.388 0.144l-0.057 0.050c-3.671 4.042-5.709 9.268-5.729 14.69-1.558 0.995-2.711 2.497-3.258 4.244s-0.453 3.628 0.266 5.313c0.757-1.646 2.022-3.015 3.616-3.911 0.16 0.681 0.373 1.35 0.637 1.999 0.033 0.125 0.108 0.235 0.211 0.315s0.231 0.123 0.362 0.124h8.836c0.178 0 0.356-0.169 0.446-0.432 0.258-0.617 0.437-1.264 0.535-1.924 1.596 0.892 2.863 2.262 3.616 3.911 0.762-1.677 0.88-3.57 0.332-5.326s-1.724-3.258-3.311-4.225c0.063-5.454-1.965-10.731-5.678-14.778-0.055-0.061-0.123-0.11-0.199-0.143s-0.158-0.051-0.241-0.051h0.006z"></path>
<path fill="rgb(78, 168, 222)" d="M9.797 14.364c-0.489 0-0.967-0.143-1.374-0.41s-0.724-0.647-0.912-1.091c-0.188-0.444-0.238-0.934-0.144-1.406s0.328-0.907 0.672-1.248 0.784-0.575 1.263-0.672c0.479-0.096 0.976-0.051 1.429 0.131s0.841 0.491 1.115 0.89c0.274 0.398 0.423 0.868 0.427 1.349 0.008 0.312-0.047 0.622-0.162 0.913s-0.286 0.557-0.504 0.783c-0.219 0.226-0.481 0.407-0.77 0.533s-0.602 0.195-0.919 0.202c-0.040 0.006-0.081 0.006-0.121 0v0.025z"></path>
<path fill="rgb(94, 96, 206)" d="M13.241 24.53c-0.159-0.005-0.318 0.021-0.467 0.078s-0.285 0.141-0.4 0.25c-0.115 0.109-0.207 0.239-0.27 0.383s-0.097 0.299-0.098 0.456v3.698c0 0.322 0.13 0.632 0.362 0.86s0.546 0.356 0.873 0.356c0.327 0 0.642-0.128 0.873-0.356s0.362-0.537 0.362-0.86v-3.647c0.005-0.156-0.021-0.312-0.078-0.458s-0.142-0.28-0.252-0.393c-0.11-0.113-0.241-0.204-0.387-0.266s-0.302-0.096-0.461-0.099h-0.057z"></path>
<path fill="rgb(94, 96, 206)" d="M6.366 24.529c-0.162-0.008-0.324 0.015-0.477 0.070s-0.292 0.139-0.411 0.247c-0.119 0.109-0.214 0.24-0.28 0.386s-0.102 0.303-0.105 0.463v3.698c0 0.322 0.13 0.632 0.362 0.86s0.546 0.356 0.873 0.356c0.328 0 0.642-0.128 0.873-0.356s0.362-0.537 0.362-0.86v-3.648c0.005-0.156-0.021-0.312-0.078-0.458s-0.142-0.28-0.252-0.393-0.241-0.204-0.387-0.266c-0.146-0.063-0.302-0.096-0.461-0.099h-0.019z"></path>
<path fill="rgb(94, 96, 206)" d="M9.708 24.53c-0.159-0.003-0.317 0.024-0.465 0.081s-0.283 0.142-0.398 0.25c-0.115 0.108-0.207 0.238-0.27 0.381s-0.098 0.297-0.102 0.454v5.095c0 0.323 0.13 0.632 0.362 0.86s0.546 0.356 0.873 0.356c0.327 0 0.642-0.128 0.873-0.356s0.362-0.537 0.362-0.86v-5.014c0.005-0.156-0.021-0.312-0.078-0.458s-0.142-0.28-0.252-0.393-0.241-0.204-0.387-0.266c-0.146-0.063-0.302-0.096-0.461-0.099l-0.057-0.031z"></path>
</symbol>
<symbol id="icon-trash" viewBox="0 0 32 32">
<path d="M18.936 13.314h-1.774v7.362h1.774v-7.362z"></path>
<path d="M15.283 13.314h-1.774v7.362h1.774v-7.362z"></path>
<path d="M24.637 9.556c-0.003-0.182-0.065-0.358-0.175-0.503s-0.264-0.251-0.438-0.303c-0.078-0.033-0.161-0.053-0.246-0.060h-4.729c-0.179-0.585-0.541-1.098-1.033-1.462s-1.088-0.561-1.7-0.561c-0.612 0-1.208 0.197-1.7 0.561s-0.854 0.877-1.033 1.462h-4.729c-0.078 0.002-0.155 0.014-0.23 0.036h-0.020c-0.185 0.057-0.344 0.175-0.453 0.335s-0.161 0.351-0.147 0.544c0.014 0.193 0.093 0.375 0.224 0.517s0.306 0.236 0.497 0.265l0.948 12.991c0.014 0.506 0.219 0.988 0.572 1.35s0.83 0.579 1.335 0.606h9.471c0.506-0.026 0.984-0.242 1.338-0.604s0.559-0.845 0.573-1.351l0.944-12.979c0.203-0.028 0.39-0.129 0.525-0.284s0.209-0.353 0.209-0.559zM16.315 8.286c0.173 0 0.344 0.036 0.502 0.105s0.3 0.171 0.417 0.298h-1.839c0.117-0.127 0.259-0.229 0.417-0.299s0.329-0.105 0.502-0.105zM21.049 23.721h-9.471c-0.109 0-0.278-0.177-0.298-0.46l-0.935-12.846h11.943l-0.935 12.846c-0.020 0.282-0.189 0.46-0.302 0.46z"></path>
</symbol>
</defs>
</svg>
